<?xml version="1.0" encoding="UTF-8"?>
<svg version="1.1" xmlns="http://www.w3.org/2000/svg" width="1167" height="830">
<path d="M0 0 C0.99181274 0.75265137 0.99181274 0.75265137 2.00366211 1.52050781 C2.89964111 2.20991455 3.79562012 2.89932129 4.71875 3.60961914 C8.65617343 5.90008463 11.88024495 6.48355402 16.33959961 7.04785156 C17.13661285 7.16350967 17.9336261 7.27916779 18.75479126 7.39833069 C21.29427915 7.76605805 23.83583252 8.11420564 26.37866211 8.45800781 C55.93815213 12.47683449 55.93815213 12.47683449 65.00366211 18.52050781 C64.80322266 20.37695313 64.80322266 20.37695313 64.00366211 22.52050781 C61.94433594 23.765625 61.94433594 23.765625 59.21069336 24.81738281 C58.19813477 25.21465576 57.18557617 25.61192871 56.14233398 26.02124023 C54.49587891 26.63962769 54.49587891 26.63962769 52.81616211 27.27050781 C51.69661133 27.70661377 50.57706055 28.14271973 49.42358398 28.59204102 C43.9032586 30.72599082 38.35737778 32.76596117 32.76538086 34.70410156 C31.7930249 35.0440918 30.82066895 35.38408203 29.81884766 35.734375 C28.00190524 36.36276511 26.17936968 36.9753131 24.35058594 37.56835938 C8.59979077 42.97591491 -0.74810042 56.99749349 -7.99047852 71.359375 C-9.99141656 75.65847782 -11.66698973 80.07410485 -13.30883789 84.52050781 C-13.63440674 85.39755371 -13.95997559 86.27459961 -14.29541016 87.17822266 C-18.69367171 99.61042857 -20.47431904 112.36348384 -22.01528931 125.38845825 C-24.87427284 149.19687474 -29.74986494 171.32432625 -38.99633789 193.52050781 C-39.55686779 194.91738896 -40.11679705 196.31451134 -40.67602539 197.71191406 C-49.89883272 220.24855791 -63.6872752 240.61251685 -80.59106445 258.04150391 C-83.093442 260.67517368 -85.41347694 263.46327355 -87.72680664 266.26269531 C-88.99633789 267.52050781 -88.99633789 267.52050781 -90.99633789 267.52050781 C-91.19614258 268.07351563 -91.39594727 268.62652344 -91.60180664 269.19628906 C-93.55545568 272.45237079 -96.32937069 274.44594551 -99.30883789 276.70800781 C-99.9362085 277.19068115 -100.5635791 277.67335449 -101.20996094 278.1706543 C-125.44814221 296.66989709 -150.73796651 308.98485378 -179.99633789 317.52050781 C-180.85815674 317.78484619 -181.71997559 318.04918457 -182.60791016 318.3215332 C-189.90051821 320.46688662 -197.13422475 321.43227552 -204.68383789 322.20800781 C-205.87428711 322.33755859 -207.06473633 322.46710938 -208.29125977 322.60058594 C-211.19220112 322.91514584 -214.09374615 323.22163152 -216.99633789 323.52050781 C-212.04912168 330.07744731 -207.04667994 336.54670849 -201.68383789 342.77050781 C-197.4290536 347.71607778 -193.42838828 352.81524966 -189.49633789 358.02050781 C-184.69951354 364.36672696 -179.73034859 370.50382161 -174.55102539 376.54003906 C-168.82659184 383.21854488 -163.28772826 390.04182075 -157.93383789 397.02050781 C-157.17973633 398.00019531 -156.42563477 398.97988281 -155.64868164 399.98925781 C-153.99633789 402.52050781 -153.99633789 402.52050781 -153.99633789 405.52050781 C-147.66668511 408.13760731 -141.52635188 409.53080397 -134.78930664 410.69238281 C-133.67252029 410.8914624 -132.55573395 411.09054199 -131.40510559 411.2956543 C-128.9593048 411.73069456 -126.51287853 412.16222941 -124.06591797 412.59069824 C-120.10204406 413.28483112 -116.13980071 413.98763844 -112.17797852 414.69335938 C-107.85662985 415.46264461 -103.53516621 416.23125198 -99.21310425 416.996521 C-82.83799296 419.89634556 -66.47224228 422.84776673 -50.10747433 425.80533218 C-44.81163078 426.76240366 -39.51543094 427.71746403 -34.21887875 428.67060566 C-15.54905107 432.03128975 3.1052401 435.46195282 21.7411499 439.00602722 C36.23385008 441.76154485 50.74145771 444.43206566 65.25366211 447.08300781 C67.2274548 447.44430345 69.20124725 447.80560047 71.1750145 448.1670351 C82.09533812 450.16673215 93.01571846 452.16613022 103.94116211 454.13769531 C116.27165011 456.36364194 128.59369508 458.62583129 140.90600586 460.95019531 C146.00099234 461.91148086 151.09603764 462.87245395 156.19116211 463.83300781 C156.84998383 463.95725254 157.50880554 464.08149727 158.18759155 464.20950699 C185.35074507 469.33061104 212.5493106 474.24864573 239.75366211 479.14550781 C270.17266607 484.62116158 300.57809866 490.13838855 330.89916992 496.13796997 C334.86452949 496.9207038 338.83136742 497.67475933 342.81323242 498.36914062 C343.56621613 498.50240753 344.31919983 498.63567444 345.09500122 498.77297974 C347.11167035 499.12702106 349.13011585 499.47090248 351.14868164 499.81396484 C352.0908252 500.04712402 353.03296875 500.2802832 354.00366211 500.52050781 C355.21331237 502.93980833 355.12898921 504.4566415 355.12950325 507.16003704 C355.132111 508.144053 355.13471874 509.12806896 355.13740551 510.14190358 C355.13517479 511.23087542 355.13294407 512.31984725 355.13064575 513.44181824 C355.13298574 515.16809959 355.13298574 515.16809959 355.135373 516.92925531 C355.13868265 520.13383717 355.13747626 523.33838147 355.13438678 526.54296243 C355.13213193 529.99587291 355.13561294 533.44877817 355.1383667 536.90168762 C355.1428243 543.67363253 355.14184744 550.44556639 355.13895406 557.21751174 C355.13669757 562.72696688 355.13638858 568.23641893 355.13747787 573.7458744 C355.13770772 574.92127556 355.13770772 574.92127556 355.13794222 576.12042219 C355.13826195 577.71236115 355.13858616 579.30430012 355.13891481 580.89623908 C355.14177019 595.84539291 355.13848293 610.79454062 355.13311444 625.74369345 C355.12865769 638.54942827 355.12941288 651.35515402 355.1340332 664.16088867 C355.13939754 679.0356479 355.14148355 693.91040173 355.13842094 708.78516179 C355.13810241 710.37528662 355.13778804 711.96541144 355.13747787 713.55553627 C355.1373236 714.33784293 355.13716932 715.12014959 355.13701037 715.92616251 C355.13614994 721.41745813 355.13759811 726.90875031 355.13995743 732.40004539 C355.14277679 739.10977935 355.1419729 745.81950162 355.13667668 752.52923425 C355.13406656 755.94773776 355.13298829 759.36622187 355.13632584 762.78472519 C355.15841965 792.62028382 355.15841965 792.62028382 354.00366211 801.52050781 C352.30814664 803.21602329 350.16227595 802.64659708 347.84094238 802.64749146 C346.72193039 802.65031128 345.6029184 802.6531311 344.44999695 802.65603638 C343.21151505 802.65401215 341.97303314 802.65198792 340.69702148 802.64990234 C338.75337456 802.65253082 338.75337456 802.65253082 336.77046204 802.6552124 C333.20650874 802.65978638 329.64258427 802.65799732 326.07863045 802.65483332 C322.35682215 802.65230953 318.6350164 802.6546473 314.91320801 802.65621948 C308.66194209 802.65804112 302.41068796 802.65563501 296.15942383 802.65087891 C288.92205087 802.64543629 281.68470608 802.64719895 274.44733381 802.65270531 C268.24437452 802.65723659 262.04142372 802.65788692 255.83846331 802.65526664 C252.12893239 802.65370395 248.41941472 802.65350988 244.70988464 802.65680313 C240.57667358 802.6602159 236.44351142 802.65549186 232.31030273 802.64990234 C230.45257988 802.65293869 230.45257988 802.65293869 228.55732727 802.65603638 C227.43831528 802.65321655 226.31930328 802.65039673 225.16638184 802.64749146 C224.18781471 802.64711443 223.20924759 802.6467374 222.20102692 802.64634895 C220.00366211 802.52050781 220.00366211 802.52050781 219.00366211 801.52050781 C218.90273664 800.16748866 218.87015825 798.80928518 218.8656311 797.45251465 C218.86017776 796.57539322 218.85472443 795.69827179 218.84910583 794.79457092 C218.84806351 793.82434494 218.84702118 792.85411896 218.84594727 791.85449219 C218.84086655 790.83802109 218.83578583 789.82154999 218.83055115 788.77427673 C218.81981569 786.55566787 218.81120809 784.33704795 218.80443192 782.11842346 C218.79265526 778.59349928 218.77319855 775.06869831 218.75131226 771.54382324 C218.68970429 761.51705109 218.63592209 751.49028683 218.60229492 741.46337891 C218.58118681 735.33479103 218.54573992 729.20642 218.50153732 723.07795715 C218.48748567 720.75310343 218.47867971 718.42821125 218.47548294 716.10331726 C218.42912092 685.57380892 213.06730687 658.39931385 190.79272461 636.01269531 C173.86903216 619.87941922 152.55785863 612.79007601 129.45727539 613.0546875 C110.64726721 613.66196685 93.00501408 620.76433536 79.00366211 633.52050781 C78.24827148 634.20757813 77.49288086 634.89464844 76.71459961 635.60253906 C71.31896574 640.75455735 67.0430629 646.2662665 63.00366211 652.52050781 C62.49061523 653.25398437 61.97756836 653.98746094 61.44897461 654.74316406 C58.03705191 659.89640482 55.78394368 665.27828507 53.75366211 671.08300781 C53.38422485 672.09814453 53.38422485 672.09814453 53.00732422 673.13378906 C47.87119628 688.68942629 48.74344743 705.74333721 48.84350586 721.89550781 C48.84979017 724.20051825 48.85502562 726.50553177 48.85926819 728.81054688 C48.87245068 734.82040554 48.89684761 740.83015881 48.92462158 746.83996582 C48.96809488 756.51349627 48.99739862 766.1870589 49.02066231 775.86065674 C49.03090143 779.23608126 49.04793297 782.61142394 49.06565857 785.98681641 C49.07247964 788.03450447 49.07908851 790.08219326 49.08544922 792.12988281 C49.09555527 793.54314346 49.09555527 793.54314346 49.10586548 794.98495483 C49.10974195 797.16373541 49.0624874 799.34251805 49.00366211 801.52050781 C47.30290437 803.22126555 45.12982739 802.64660166 42.80297852 802.64749146 C41.67555237 802.65031128 40.54812622 802.6531311 39.38653564 802.65603638 C38.138703 802.65401215 36.89087036 802.65198792 35.60522461 802.64990234 C34.29970642 802.65165466 32.99418823 802.65340698 31.64910889 802.6552124 C28.05829702 802.65978643 24.46751375 802.65799731 20.87670135 802.65483332 C17.12686585 802.65230955 13.37703286 802.6546473 9.62719727 802.65621948 C3.32885293 802.65804113 -2.9694797 802.65563499 -9.26782227 802.65087891 C-16.55972672 802.64543629 -23.85160322 802.64719895 -31.143507 802.65270531 C-37.39317502 802.65723658 -43.64283461 802.65788692 -49.89250374 802.65526664 C-53.6299803 802.65370394 -57.36744371 802.65350991 -61.10491943 802.65680313 C-65.26926339 802.66021587 -69.4335588 802.65549189 -73.59790039 802.64990234 C-74.84573303 802.65192657 -76.09356567 802.65395081 -77.37921143 802.65603638 C-78.50663757 802.65321655 -79.63406372 802.65039673 -80.7956543 802.64749146 C-81.78159576 802.64711443 -82.76753723 802.6467374 -83.78335571 802.64634895 C-85.99633789 802.52050781 -85.99633789 802.52050781 -86.99633789 801.52050781 C-88.35104506 794.82054614 -88.14835717 788.06187105 -88.15405273 781.25170898 C-88.15872823 779.91043941 -88.16387299 778.56917141 -88.16944885 777.22790527 C-88.18068576 774.34805133 -88.18914145 771.46820747 -88.19556808 768.58833885 C-88.20631883 764.01672481 -88.2265858 759.44518295 -88.24868774 754.87361145 C-88.31036319 741.87614286 -88.36444286 728.87867822 -88.39770508 715.88110352 C-88.41617327 708.69566194 -88.44526343 701.51034145 -88.48570979 694.32498914 C-88.50658529 690.53393757 -88.52220887 686.7430373 -88.52451706 682.95192528 C-88.53649739 667.59817778 -88.57346581 652.56425806 -91.99633789 637.52050781 C-92.21616837 636.54238129 -92.43599884 635.56425476 -92.66249084 634.55648804 C-93.17205078 632.39639237 -93.7453909 630.27445392 -94.37133789 628.14550781 C-94.58701416 627.39986572 -94.80269043 626.65422363 -95.02490234 625.88598633 C-101.77785796 603.12948466 -115.36169932 583.28310514 -131.99633789 566.52050781 C-132.65633789 566.19050781 -133.31633789 565.86050781 -133.99633789 565.52050781 C-133.99633789 564.86050781 -133.99633789 564.20050781 -133.99633789 563.52050781 C-134.53774414 563.28460937 -135.07915039 563.04871094 -135.63696289 562.80566406 C-138.6374819 561.1712754 -141.0920758 559.11038532 -143.74633789 556.95800781 C-160.48111773 543.80155359 -180.32800647 535.24013538 -200.99633789 530.52050781 C-202.19891235 530.24013672 -202.19891235 530.24013672 -203.42578125 529.95410156 C-211.55604158 528.25539966 -219.66261972 528.12222947 -227.93383789 528.14550781 C-229.02524582 528.14632355 -229.02524582 528.14632355 -230.13870239 528.14715576 C-242.13986941 528.18830582 -253.43339766 529.16870912 -264.99633789 532.52050781 C-265.75897949 532.73481445 -266.52162109 532.94912109 -267.30737305 533.16992188 C-287.46593388 538.96566629 -305.09777467 548.86020386 -320.99633789 562.52050781 C-321.85356445 563.24238281 -322.71079102 563.96425781 -323.59399414 564.70800781 C-329.82695501 570.10284256 -334.97509738 575.99656029 -339.99633789 582.52050781 C-340.96313477 583.71160156 -340.96313477 583.71160156 -341.94946289 584.92675781 C-351.26262925 596.89001216 -358.14483203 610.95769752 -362.99633789 625.27050781 C-363.26260986 626.04765137 -363.52888184 626.82479492 -363.80322266 627.62548828 C-364.63316222 630.23892641 -365.32133303 632.86251629 -365.99633789 635.52050781 C-366.2536972 636.52845398 -366.51105652 637.53640015 -366.7762146 638.57489014 C-369.99142148 653.62379388 -369.46091249 668.98850832 -369.46951723 684.29870796 C-369.47523888 688.42620101 -369.49854499 692.553595 -369.52011108 696.68103027 C-369.5583863 704.47077202 -369.58276763 712.2604848 -369.60123575 720.05029631 C-369.63487045 734.04422909 -369.6923279 748.03807618 -369.75522745 762.0319047 C-369.77672785 766.93981451 -369.79199014 771.84769384 -369.80206704 776.75564003 C-369.80905968 779.79196332 -369.81993369 782.8282644 -369.83170891 785.86457253 C-369.83628342 787.27676248 -369.83911822 788.68895924 -369.84013176 790.10115623 C-369.84169288 792.02012383 -369.84980258 793.93908284 -369.85830688 795.85803223 C-369.86086298 796.93380775 -369.86341908 798.00958328 -369.86605263 799.11795807 C-369.99633789 801.52050781 -369.99633789 801.52050781 -370.99633789 802.52050781 C-372.72761887 802.61895703 -374.46294374 802.64682834 -376.19702148 802.64749146 C-377.32444763 802.65031128 -378.45187378 802.6531311 -379.61346436 802.65603638 C-380.861297 802.65401215 -382.10912964 802.65198792 -383.39477539 802.64990234 C-384.70029358 802.65165466 -386.00581177 802.65340698 -387.35089111 802.6552124 C-390.94170298 802.65978643 -394.53248625 802.65799731 -398.12329865 802.65483332 C-401.87313415 802.65230955 -405.62296714 802.6546473 -409.37280273 802.65621948 C-415.67114707 802.65804113 -421.9694797 802.65563499 -428.26782227 802.65087891 C-435.55972672 802.64543629 -442.85160322 802.64719895 -450.143507 802.65270531 C-456.39317502 802.65723658 -462.64283461 802.65788692 -468.89250374 802.65526664 C-472.6299803 802.65370394 -476.36744371 802.65350991 -480.10491943 802.65680313 C-484.26926339 802.66021587 -488.4335588 802.65549189 -492.59790039 802.64990234 C-493.84573303 802.65192657 -495.09356567 802.65395081 -496.37921143 802.65603638 C-497.50663757 802.65321655 -498.63406372 802.65039673 -499.7956543 802.64749146 C-500.78159576 802.64711443 -501.76753723 802.6467374 -502.78335571 802.64634895 C-504.99633789 802.52050781 -504.99633789 802.52050781 -505.99633789 801.52050781 C-506.09725083 800.17198372 -506.12984136 798.81825991 -506.1343689 797.4659729 C-506.13982224 796.59174179 -506.14527557 795.71751068 -506.15089417 794.81678772 C-506.15193649 793.84970383 -506.15297882 792.88261993 -506.15405273 791.88623047 C-506.15913345 790.87297195 -506.16421417 789.85971344 -506.16944885 788.81575012 C-506.18018512 786.60369366 -506.1887924 784.39162612 -506.19556808 782.17955399 C-506.20734938 778.6624817 -506.22680836 775.14553264 -506.24868774 771.62850952 C-506.31027254 761.62380176 -506.36403079 751.61910132 -506.39770508 741.61425781 C-506.4188441 735.49862882 -506.45431645 729.38321586 -506.49846268 723.26771164 C-506.51249272 720.95009308 -506.52131524 718.63243619 -506.52451706 716.31477737 C-506.5700381 686.47371259 -510.71433992 660.1639989 -532.38696289 638.09863281 C-533.24805664 637.24785156 -534.10915039 636.39707031 -534.99633789 635.52050781 C-535.65118164 634.85535156 -536.30602539 634.19019531 -536.98071289 633.50488281 C-553.231558 618.08741438 -575.47420547 612.8154033 -597.19165039 613.21582031 C-618.64495774 614.05945053 -638.19667608 624.94784768 -652.80883789 640.33300781 C-667.61787668 657.6465164 -675.28593843 679.30768191 -675.29931641 701.94287109 C-675.3119754 703.56684059 -675.3119754 703.56684059 -675.32489014 705.22361755 C-675.3504536 708.76269011 -675.36275322 712.30167974 -675.37524414 715.84082031 C-675.39143286 718.3113571 -675.40861429 720.78188757 -675.42674255 723.25241089 C-675.47224227 729.72588184 -675.50715687 736.19936133 -675.53894043 742.6729126 C-675.59101242 753.06926167 -675.65578487 763.46551877 -675.72715569 773.86175156 C-675.750043 777.49637765 -675.76627085 781.13099178 -675.78187561 784.76565552 C-675.79527269 786.97446836 -675.80888665 789.1832799 -675.82275391 791.39208984 C-675.82536728 792.40914505 -675.82798065 793.42620026 -675.83067322 794.47407532 C-675.84102097 795.85324883 -675.84102097 795.85324883 -675.85157776 797.26028442 C-675.85543267 798.0636278 -675.85928759 798.86697117 -675.86325932 799.69465828 C-675.99633789 801.52050781 -675.99633789 801.52050781 -676.99633789 802.52050781 C-678.72761887 802.61895703 -680.46294374 802.64682834 -682.19702148 802.64749146 C-683.32444763 802.65031128 -684.45187378 802.6531311 -685.61346436 802.65603638 C-686.861297 802.65401215 -688.10912964 802.65198792 -689.39477539 802.64990234 C-690.70029358 802.65165466 -692.00581177 802.65340698 -693.35089111 802.6552124 C-696.94170298 802.65978643 -700.53248625 802.65799731 -704.12329865 802.65483332 C-707.87313415 802.65230955 -711.62296714 802.6546473 -715.37280273 802.65621948 C-721.67114707 802.65804113 -727.9694797 802.65563499 -734.26782227 802.65087891 C-741.55972672 802.64543629 -748.85160322 802.64719895 -756.143507 802.65270531 C-762.39317502 802.65723658 -768.64283461 802.65788692 -774.89250374 802.65526664 C-778.6299803 802.65370394 -782.36744371 802.65350991 -786.10491943 802.65680313 C-790.26926339 802.66021587 -794.4335588 802.65549189 -798.59790039 802.64990234 C-799.84573303 802.65192657 -801.09356567 802.65395081 -802.37921143 802.65603638 C-803.50663757 802.65321655 -804.63406372 802.65039673 -805.7956543 802.64749146 C-806.78159576 802.64711443 -807.76753723 802.6467374 -808.78335571 802.64634895 C-810.99633789 802.52050781 -810.99633789 802.52050781 -811.99633789 801.52050781 C-812.09339754 799.92017069 -812.12005403 798.3155264 -812.11938572 796.7122488 C-812.12137677 795.66523908 -812.12336782 794.61822936 -812.1254192 793.53949207 C-812.12104994 791.7929346 -812.12104994 791.7929346 -812.11659241 790.01109314 C-812.11744683 788.78517301 -812.11830126 787.55925287 -812.11918157 786.29618365 C-812.12054981 782.87794974 -812.11740215 779.45977238 -812.11240351 776.04154527 C-812.10810247 772.36122852 -812.10954519 768.68091365 -812.11030579 765.00059509 C-812.11083124 758.61905944 -812.10768219 752.23753399 -812.10206795 745.8560009 C-812.09395586 736.62926935 -812.09133803 727.40254275 -812.09007996 718.17580802 C-812.08788898 703.20761596 -812.08122765 688.23942934 -812.07177734 673.27124023 C-812.06260441 658.7272952 -812.055523 644.18335164 -812.05126953 629.6394043 C-812.05100681 628.74356835 -812.05074408 627.8477324 -812.0504734 626.9247499 C-812.0491684 622.43079917 -812.04790469 617.93684843 -812.0466615 613.44289768 C-812.03628745 576.13543055 -812.01866789 538.8279696 -811.99633789 501.52050781 C-810.55615166 501.03309393 -809.11532575 500.54756987 -807.67423153 500.06284714 C-806.87194054 499.79226887 -806.06964954 499.52169061 -805.2430467 499.24291301 C-802.73829923 498.43753824 -800.26710314 497.86365774 -797.67626953 497.40820312 C-796.71695023 497.23599243 -795.75763092 497.06378174 -794.76924133 496.88635254 C-793.74203476 496.70890503 -792.71482819 496.53145752 -791.65649414 496.34863281 C-790.54038254 496.14991577 -789.42427094 495.95119873 -788.27433777 495.74645996 C-785.83188236 495.31225306 -783.38888952 494.88106101 -780.94543457 494.45251465 C-776.94985646 493.75138412 -772.95577339 493.04228159 -768.9621582 492.33007812 C-768.26947908 492.20656857 -767.57679996 492.08305901 -766.86313057 491.95580673 C-765.43454199 491.70105992 -764.00595892 491.44628224 -762.57738113 491.19147491 C-760.36113281 490.7964577 -758.14473811 490.40227049 -755.92831421 490.00823975 C-738.88334242 486.9761119 -721.85342959 483.86193936 -704.82422638 480.74266052 C-702.23919756 480.26920003 -699.65411989 479.79600704 -697.06903076 479.32287598 C-671.12702909 474.57432807 -645.19039729 469.7968514 -619.25785828 464.99690247 C-616.74375163 464.53159653 -614.2296059 464.06650233 -611.7154541 463.60144043 C-592.79336856 460.10054947 -573.87898307 456.56129086 -554.97245789 452.97731018 C-542.48540866 450.61043938 -529.99366621 448.2700505 -517.49633789 445.95800781 C-516.40537811 445.75596741 -515.31441833 445.553927 -514.19039917 445.34576416 C-492.51325068 441.3332104 -470.82334273 437.39173833 -449.13230896 433.45512772 C-412.62371093 426.82917289 -376.12922204 420.12755338 -339.63897705 413.40132141 C-329.40539872 411.51522738 -319.1708726 409.63439449 -308.93533325 407.75897217 C-303.51530105 406.76584143 -298.09563867 405.7707005 -292.67609596 404.77490234 C-289.0992484 404.11780307 -285.52221484 403.46175774 -281.94470215 402.80828857 C-278.07980741 402.1023129 -274.21577131 401.39171362 -270.35180664 400.68066406 C-269.21682236 400.47418747 -268.08183807 400.26771088 -266.91246033 400.05497742 C-265.88850662 399.86579239 -264.86455292 399.67660736 -263.80957031 399.48168945 C-262.92170334 399.31899063 -262.03383636 399.15629181 -261.11906433 398.98866272 C-258.95644731 398.60226553 -258.95644731 398.60226553 -256.99633789 397.52050781 C-257.29419189 397.05249756 -257.5920459 396.5844873 -257.89892578 396.10229492 C-261.22076938 390.84061332 -264.35910178 385.49215017 -267.43383789 380.08300781 C-267.9460791 379.18412842 -268.45832031 378.28524902 -268.98608398 377.35913086 C-276.39454212 364.33472723 -283.72819863 351.26604688 -290.96508789 338.14550781 C-291.4173877 337.32655029 -291.8696875 336.50759277 -292.33569336 335.66381836 C-293.16008488 334.16923692 -293.98223001 332.67341289 -294.80151367 331.17602539 C-295.16744629 330.5123999 -295.53337891 329.84877441 -295.91040039 329.16503906 C-296.21929199 328.60147705 -296.52818359 328.03791504 -296.84643555 327.45727539 C-297.22590332 326.81814209 -297.60537109 326.17900879 -297.99633789 325.52050781 C-298.54201416 324.5048877 -299.08769043 323.48926758 -299.64990234 322.44287109 C-302.57722516 318.79704297 -305.24586145 318.07918792 -309.62524414 317.11816406 C-311.25238313 316.71347572 -312.87880875 316.30591196 -314.50463867 315.89599609 C-315.38613586 315.6795343 -316.26763306 315.46307251 -317.17584229 315.24005127 C-322.33005189 313.92514839 -327.42237336 312.39652782 -332.52368164 310.89160156 C-334.7391486 310.24241803 -336.95464372 309.59333059 -339.17016602 308.94433594 C-340.28206299 308.61763916 -341.39395996 308.29094238 -342.53955078 307.9543457 C-345.95186594 306.95271597 -349.36568106 305.95631097 -352.77954102 304.95996094 C-354.98601499 304.31249394 -357.19239846 303.66471839 -359.39868164 303.01660156 C-360.40100327 302.72482529 -361.40332489 302.43304901 -362.4360199 302.13243103 C-368.26961079 300.41126327 -373.99025481 298.49627302 -379.68959045 296.37139893 C-384.70277472 294.43485062 -384.70277472 294.43485062 -389.87524414 295.19775391 C-392.14535115 296.27393314 -394.31317276 297.46491797 -396.49633789 298.70800781 C-397.31875977 299.15853516 -398.14118164 299.6090625 -398.98852539 300.07324219 C-400.75274437 301.04144344 -402.51306011 302.01678483 -404.26977539 302.99853516 C-407.90712731 305.02891229 -411.56578496 307.01919333 -415.22436523 309.01098633 C-417.0798302 310.02140907 -418.93431626 311.03363137 -420.7878418 312.04760742 C-426.79309589 315.33197807 -432.81692582 318.57763379 -438.87133789 321.77050781 C-439.90194336 322.31578125 -439.90194336 322.31578125 -440.95336914 322.87207031 C-445.76514796 325.39892623 -450.6197953 327.83603503 -455.48461914 330.25878906 C-463.38904156 334.19636407 -471.23460803 338.24272619 -479.07620239 342.30358887 C-517.15573302 361.99320306 -555.20359125 380.12102998 -598.99633789 366.52050781 C-606.39461423 364.1549443 -613.55059267 361.18912564 -617.99633789 354.52050781 C-617.99633789 352.56347656 -617.99633789 352.56347656 -616.99633789 350.52050781 C-614.43383789 348.69628906 -614.43383789 348.69628906 -610.99633789 346.83300781 C-610.37404297 346.49269531 -609.75174805 346.15238281 -609.1105957 345.80175781 C-607.77054167 345.07238649 -606.42696966 344.34944913 -605.08032227 343.63232422 C-603.01715312 342.53161284 -600.96716154 341.40914832 -598.91821289 340.28222656 C-590.97677063 335.95427631 -582.92544791 332.06875609 -574.63549805 328.45654297 C-567.79812545 325.46840137 -561.15116418 322.17320992 -554.50170898 318.79150391 C-549.15482955 316.07898643 -543.794617 313.39292543 -538.43383789 310.70800781 C-537.8289151 310.40499756 -537.22399231 310.1019873 -536.60073853 309.78979492 C-523.7967642 303.38153474 -510.8874469 297.20393605 -497.94702148 291.07666016 C-483.78661576 284.3646765 -469.7720041 277.44653819 -455.93920898 270.08105469 C-452.83721014 268.43612548 -449.7237555 266.81420129 -446.60961914 265.19238281 C-436.25322185 259.75452446 -426.52410364 254.62050538 -417.99633789 246.52050781 C-416.98515676 245.5979145 -415.97201268 244.6774696 -414.95727539 243.75878906 C-410.29581572 239.5159352 -405.70885936 235.19499508 -401.12915039 230.86425781 C-400.49146729 230.26452148 -399.85378418 229.66478516 -399.19677734 229.046875 C-397.95672775 227.88010909 -396.72074316 226.70900478 -395.48925781 225.53320312 C-391.22099642 221.52050781 -391.22099642 221.52050781 -388.99633789 221.52050781 C-388.99633789 220.86050781 -388.99633789 220.20050781 -388.99633789 219.52050781 C-387.42347105 218.10612375 -385.78493793 216.7644638 -384.12133789 215.45800781 C-379.21735611 211.5500482 -374.57299959 207.46026316 -369.99243164 203.17285156 C-367.99633789 201.52050781 -367.99633789 201.52050781 -365.99633789 201.52050781 C-365.99633789 200.86050781 -365.99633789 200.20050781 -365.99633789 199.52050781 C-364.44745287 198.1034428 -362.82872255 196.76241285 -361.18383789 195.45800781 C-360.1693457 194.64589844 -359.15485352 193.83378906 -358.10961914 192.99707031 C-357.08223633 192.17980469 -356.05485352 191.36253906 -354.99633789 190.52050781 C-353.28536283 189.12791389 -351.57699102 187.73211499 -349.87133789 186.33300781 C-348.96125977 185.59050781 -348.05118164 184.84800781 -347.11352539 184.08300781 C-344.79249305 182.18246335 -342.48994378 180.26097629 -340.19165039 178.33300781 C-330.42859168 170.17149314 -320.38188591 162.51673207 -310.08520508 155.04248047 C-307.30713997 153.01835028 -304.55597431 150.96144374 -301.80883789 148.89550781 C-300.87813477 148.19683594 -299.94743164 147.49816406 -298.98852539 146.77832031 C-296.78067071 145.11234119 -294.57836967 143.43998801 -292.37915039 141.76269531 C-282.90771858 134.56416901 -273.21879717 127.74827376 -263.3503418 121.10546875 C-261.10762707 119.59543929 -258.87010119 118.07798142 -256.63305664 116.55957031 C-241.96861999 106.64923602 -226.98926166 97.20796686 -211.74243164 88.21972656 C-211.13661758 87.86244476 -210.53080353 87.50516296 -209.90663147 87.13705444 C-206.96962131 85.4073729 -204.02820099 83.68617991 -201.08056641 81.97460938 C-186.76824668 73.60266254 -178.2144914 65.39334996 -170.14483643 50.80691528 C-169.10185076 48.92280512 -168.04678029 47.04595022 -166.98803711 45.1706543 C-165.60095524 42.71316803 -164.21684608 40.25406619 -162.83618164 37.79296875 C-145.88169337 7.63665761 -125.86988082 -13.75693184 -91.99633789 -24.47949219 C-57.94574533 -34.00123844 -26.2750778 -21.22259553 0 0 Z M-71.37133789 13.33300781 C-72.31341184 16.63026664 -72.40894445 19.10176771 -71.99633789 22.52050781 C-69.27971973 26.63424389 -66.89703994 29.41784985 -61.99633789 30.52050781 C-57.58364248 30.29987304 -55.19781569 28.46240633 -51.99633789 25.52050781 C-49.52703408 21.8165521 -49.67506231 20.09337279 -50.26196289 15.81738281 C-51.56877255 11.73012708 -54.30482544 9.53336954 -57.99633789 7.52050781 C-63.64081307 6.3685741 -67.92718265 8.792985 -71.37133789 13.33300781 Z M-80.99633789 72.52050781 C-82.0443457 73.514375 -82.0443457 73.514375 -83.11352539 74.52832031 C-87.44148929 78.95732617 -90.44113923 83.7360983 -93.24633789 89.20800781 C-93.72224365 90.1236853 -93.72224365 90.1236853 -94.20776367 91.05786133 C-100.40171289 103.8021641 -102.22362035 117.84817763 -104.27539062 131.70166016 C-106.46529603 146.33936712 -109.59329359 160.30969018 -116.80883789 173.39550781 C-117.24188232 174.19722412 -117.67492676 174.99894043 -118.12109375 175.82495117 C-121.49999976 181.93629359 -125.29311982 187.34604392 -129.99633789 192.52050781 C-130.7040332 193.34550781 -131.41172852 194.17050781 -132.14086914 195.02050781 C-171.1620165 239.85040741 -238.05943597 254.56159244 -293.99633789 264.52050781 C-295.09719727 264.71773437 -296.19805664 264.91496094 -297.33227539 265.11816406 C-311.0368029 267.53760534 -324.74799334 269.25352474 -338.60620117 270.48217773 C-339.7726416 270.59021729 -340.93908203 270.69825684 -342.14086914 270.80957031 C-343.69318237 270.94419678 -343.69318237 270.94419678 -345.27685547 271.08154297 C-347.90929244 271.50645738 -349.70955726 272.18322119 -351.99633789 273.52050781 C-316.05136682 286.17529163 -278.1812506 294.74215363 -239.99633789 294.77050781 C-239.17552734 294.77118256 -238.3547168 294.7718573 -237.5090332 294.77255249 C-225.08486347 294.75635627 -213.16685559 294.19463014 -200.99633789 291.52050781 C-199.73926025 291.26309814 -199.73926025 291.26309814 -198.45678711 291.00048828 C-170.47511476 285.2351612 -145.72115876 273.85709694 -122.99633789 256.52050781 C-122.00504883 255.77285156 -121.01375977 255.02519531 -119.99243164 254.25488281 C-77.01400961 220.47271703 -58.01194649 169.04725192 -51.24041748 116.55200195 C-49.68330737 104.57808458 -47.79705817 93.0195023 -43.99633789 81.52050781 C-43.65344727 80.44027344 -43.31055664 79.36003906 -42.95727539 78.24707031 C-39.46773497 68.28054121 -34.17951518 59.06577063 -29.15380859 49.80957031 C-27.94894582 47.42678327 -26.95249896 45.01230483 -25.99633789 42.52050781 C-44.89632306 42.52050781 -68.33869287 60.12030641 -80.99633789 72.52050781 Z M-267.99633789 322.52050781 C-267.39550051 326.44899178 -266.18781302 329.40405598 -264.29321289 332.88769531 C-263.73150391 333.92667969 -263.16979492 334.96566406 -262.59106445 336.03613281 C-261.98230469 337.14472656 -261.37354492 338.25332031 -260.74633789 339.39550781 C-260.11953125 340.54792969 -259.49272461 341.70035156 -258.84692383 342.88769531 C-255.77866146 348.5183604 -252.66764521 354.12485421 -249.52758789 359.71582031 C-248.98320068 360.68543701 -248.43881348 361.65505371 -247.87792969 362.65405273 C-246.79005322 364.56528386 -245.68464866 366.46664357 -244.56201172 368.35766602 C-241.97308185 372.75271846 -239.76591288 376.86917376 -238.22680664 381.74316406 C-236.38386663 387.0255293 -234.74422565 391.27120754 -229.99633789 394.52050781 C-217.74150919 399.32553331 -202.07631171 400.7984313 -188.99633789 400.52050781 C-193.26982522 394.70381672 -197.73877582 389.06323684 -202.25683594 383.43652344 C-207.08091511 377.42585552 -211.84557703 371.37018769 -216.59790039 365.30273438 C-218.08162958 363.41180855 -219.56976641 361.52441656 -221.05883789 359.63769531 C-221.56084717 359.000979 -222.06285645 358.3642627 -222.58007812 357.70825195 C-223.5423037 356.48803491 -224.50531591 355.26843763 -225.46923828 354.04956055 C-227.4089549 351.58729329 -229.256384 349.13043865 -230.99633789 346.52050781 C-231.65633789 346.52050781 -232.31633789 346.52050781 -232.99633789 346.52050781 C-233.26583252 345.93857666 -233.53532715 345.35664551 -233.81298828 344.75708008 C-235.00367844 342.50663392 -236.32099315 340.70418088 -237.92993164 338.73535156 C-238.49647461 338.03990234 -239.06301758 337.34445312 -239.64672852 336.62792969 C-240.23647461 335.91185547 -240.8262207 335.19578125 -241.43383789 334.45800781 C-242.31265625 333.3780957 -242.31265625 333.3780957 -243.20922852 332.27636719 C-245.57896611 329.37846623 -245.57896611 329.37846623 -247.99633789 326.52050781 C-248.47184082 325.96073242 -248.94734375 325.40095703 -249.43725586 324.82421875 C-251.38582045 323.19482087 -252.49208917 323.10337431 -255.00805664 323.00878906 C-255.76538086 322.97333984 -256.52270508 322.93789063 -257.30297852 322.90136719 C-258.48150391 322.8675293 -258.48150391 322.8675293 -259.68383789 322.83300781 C-260.48112305 322.79884766 -261.2784082 322.7646875 -262.09985352 322.72949219 C-264.06485693 322.64712677 -266.03057485 322.58213714 -267.99633789 322.52050781 Z M-239.99584961 433.6628418 C-240.64930862 433.78513059 -241.30276764 433.90741938 -241.97602844 434.03341389 C-244.12736982 434.43770358 -246.27661979 434.85215461 -248.42602539 435.26660156 C-249.95862118 435.55644995 -251.49134949 435.84559834 -253.02420044 436.13409424 C-256.28066227 436.74825877 -259.53627174 437.36668916 -262.79125977 437.98861694 C-267.91812119 438.96801133 -273.04681939 439.93750917 -278.17602539 440.90454102 C-279.02866596 441.06529712 -279.88130653 441.22605322 -280.7597847 441.39168072 C-282.47851215 441.71568261 -284.19724815 442.0396392 -285.91599274 442.36355019 C-288.48836532 442.84860263 -291.06057109 443.33453189 -293.63275146 443.82060242 C-307.07396381 446.35867733 -320.52917452 448.8113523 -333.99633789 451.20800781 C-353.11158094 454.61660333 -372.20080698 458.155175 -391.28555298 461.73034668 C-408.07329859 464.87390282 -424.87021208 467.9560794 -441.68383789 470.95800781 C-460.91338686 474.39244273 -480.11490322 477.9661488 -499.31042099 481.58539963 C-521.8711756 485.83843295 -544.44973131 489.9856909 -567.04055786 494.07587433 C-591.97684338 498.59073615 -616.90351744 503.15010474 -641.80883789 507.83300781 C-642.46934395 507.95717197 -643.12985001 508.08133614 -643.8103714 508.20926285 C-653.20643237 509.97576174 -662.60153683 511.74732177 -671.99633789 513.52050781 C-679.31151139 514.90104106 -686.62682715 516.2808051 -693.94281006 517.65704346 C-695.87536295 518.0206281 -697.80785931 518.38451336 -699.74029541 518.74871826 C-711.11396726 520.89079767 -722.49606069 522.9780838 -733.89086914 525.00488281 C-735.62626953 525.31417473 -735.62626953 525.31417473 -737.39672852 525.62971497 C-743.00463801 526.62849819 -748.61350877 527.6211776 -754.22436523 528.60327148 C-756.23562615 528.95962635 -758.24685819 529.31614431 -760.25805664 529.67285156 C-761.17335648 529.83078186 -762.08865631 529.98871216 -763.0316925 530.15142822 C-764.30329475 530.37847443 -764.30329475 530.37847443 -765.60058594 530.61010742 C-766.33294968 530.73840439 -767.06531342 530.86670135 -767.81987 530.99888611 C-770.33100537 531.60071567 -772.60915799 532.54361138 -774.99633789 533.52050781 C-775.01912797 562.93151872 -775.03683592 592.342529 -775.04740322 621.75354692 C-775.048654 625.22217257 -775.04994831 628.6907982 -775.05126953 632.15942383 C-775.05153184 632.84999353 -775.05179415 633.54056323 -775.05206441 634.25205929 C-775.05642116 645.448177 -775.06430873 656.64428959 -775.07349069 667.84040426 C-775.08282709 679.32020515 -775.08831857 690.80000188 -775.09042639 702.27980667 C-775.09173393 708.73138275 -775.09482252 715.18294721 -775.10206795 721.63451958 C-775.10882414 727.69923963 -775.11095568 733.76394323 -775.10944557 739.82866669 C-775.10972208 742.06163942 -775.11172957 744.29461267 -775.11554337 746.52758217 C-775.12047435 749.56194209 -775.11933839 752.59623878 -775.11659241 755.63059998 C-775.11950525 756.52649619 -775.12241809 757.42239241 -775.1254192 758.34543699 C-775.50358942 762.24570261 -775.50358942 762.24570261 -773.99633789 765.52050781 C-772.12998001 765.61961342 -770.25985595 765.64850043 -768.39086914 765.64990234 C-766.5939563 765.65463058 -766.5939563 765.65463058 -764.76074219 765.65945435 C-762.80454956 765.656418 -762.80454956 765.656418 -760.80883789 765.65332031 C-759.46744774 765.65399341 -758.1260577 765.65496349 -756.78466797 765.65621948 C-753.97012168 765.65769617 -751.15560707 765.65554285 -748.34106445 765.65087891 C-744.72593158 765.64518162 -741.11087294 765.64846078 -737.4957428 765.65445137 C-734.72488847 765.65805778 -731.95405187 765.65691803 -729.18319702 765.65432358 C-727.19944206 765.65332814 -725.21568642 765.65637522 -723.23193359 765.65945435 C-721.43502075 765.6547261 -721.43502075 765.6547261 -719.60180664 765.64990234 C-718.01082153 765.64870895 -718.01082153 765.64870895 -716.38769531 765.64749146 C-714.04318847 765.79023061 -714.04318847 765.79023061 -712.99633789 764.52050781 C-712.89254333 762.10097889 -712.85272081 759.70907809 -712.85449219 757.28881836 C-712.85101776 756.53075897 -712.84754333 755.77269958 -712.84396362 754.9916687 C-712.8365874 753.33619107 -712.83125202 751.68070343 -712.82767296 750.02521324 C-712.82049832 747.3857724 -712.80481464 744.74651652 -712.78633118 742.10713196 C-712.73397827 734.59855019 -712.68610791 727.09005825 -712.67041016 719.58129883 C-712.66018131 714.98927509 -712.6304684 710.39770078 -712.58909035 705.8058567 C-712.57696061 704.07241065 -712.5716252 702.33890045 -712.57388878 700.60541344 C-712.58951955 684.69434682 -710.67050028 668.68770989 -704.80883789 653.77050781 C-704.36773682 652.61603149 -704.36773682 652.61603149 -703.91772461 651.43823242 C-691.84315047 620.96356126 -669.48845985 598.95838806 -639.99633789 585.52050781 C-638.92125977 585.02550781 -637.84618164 584.53050781 -636.73852539 584.02050781 C-608.50338122 571.6353793 -574.1965774 572.973049 -545.72338867 583.765625 C-515.61944406 595.63916934 -493.8216346 618.35646662 -480.14477539 647.33691406 C-474.03383851 661.61143585 -470.17212795 677.8276819 -469.67993164 693.34863281 C-469.64875999 694.32502213 -469.64875999 694.32502213 -469.61695862 695.32113647 C-469.5508582 697.47081092 -469.49188103 699.62060166 -469.43383789 701.77050781 C-469.41232666 702.51274597 -469.39081543 703.25498413 -469.36865234 704.01971436 C-468.92290161 719.65123136 -468.93000126 735.27951177 -469.03320312 750.91601562 C-469.03746811 751.816315 -469.04173309 752.71661438 -469.04612732 753.64419556 C-469.05443068 755.34456018 -469.06691288 757.04491093 -469.0841217 758.74520874 C-469.09249529 760.67051259 -469.0499547 762.59593246 -468.99633789 764.52050781 C-467.25334401 766.26350169 -464.85227537 765.64809463 -462.48266602 765.64990234 C-460.7157843 765.65463058 -460.7157843 765.65463058 -458.91320801 765.65945435 C-457.63095337 765.65743011 -456.34869873 765.65540588 -455.02758789 765.65332031 C-453.72180786 765.65427704 -452.41602783 765.65523376 -451.07067871 765.65621948 C-448.30321067 765.65769614 -445.53577485 765.65554293 -442.76831055 765.65087891 C-439.2137114 765.64518162 -435.65918775 765.64846079 -432.10459137 765.65445137 C-428.72475075 765.65892528 -425.34493066 765.65579667 -421.96508789 765.65332031 C-420.68283325 765.65534454 -419.40057861 765.65736877 -418.07946777 765.65945435 C-416.31258606 765.6547261 -416.31258606 765.6547261 -414.51000977 765.64990234 C-413.46711792 765.64910675 -412.42422607 765.64831116 -411.34973145 765.64749146 C-409.03873154 765.78556188 -409.03873154 765.78556188 -407.99633789 764.52050781 C-407.90767841 762.83200943 -407.8894595 761.13977391 -407.89868164 759.44897461 C-407.90192947 758.35371964 -407.90517731 757.25846466 -407.90852356 756.13002014 C-407.91687729 754.92212326 -407.92523102 753.71422638 -407.93383789 752.46972656 C-407.94270499 749.8689784 -407.95140529 747.26822967 -407.95996094 744.66748047 C-407.96612909 743.27386417 -407.97242806 741.88024845 -407.97885132 740.4866333 C-408.01033592 733.29092751 -408.0142859 726.09517973 -408.01586914 718.89941406 C-408.01614577 717.80561558 -408.01614577 717.80561558 -408.01642799 716.68972015 C-408.01721251 703.10572052 -407.94852769 689.5236054 -407.73388672 675.94107056 C-407.70095074 673.77233707 -407.67282513 671.6035243 -407.64990234 669.43466187 C-407.46816193 652.94993605 -405.73242608 637.63323487 -401.30883789 621.70800781 C-401.05537598 620.79204834 -400.80191406 619.87608887 -400.54077148 618.93237305 C-394.72384874 598.62548527 -385.95801073 580.056031 -373.25219727 563.19824219 C-372.04630904 561.58726553 -370.87211372 559.95271221 -369.69946289 558.31738281 C-343.29188574 522.33927434 -301.68290505 499.19112774 -257.98071289 492.02832031 C-208.04137704 485.29320682 -159.31162878 496.48307902 -118.98852539 527.11816406 C-115.0229758 530.30199304 -111.27891008 533.68727512 -107.56665039 537.16113281 C-105.77179812 538.80868717 -103.91176029 540.38675214 -102.00805664 541.90722656 C-98.75832815 544.72702988 -96.27079112 547.67073396 -93.68383789 551.08300781 C-93.21091309 551.69869629 -92.73798828 552.31438477 -92.25073242 552.94873047 C-91.28631226 554.20665573 -90.32469132 555.46673234 -89.3659668 556.72900391 C-88.12927382 558.34662477 -86.86700261 559.9446125 -85.60180664 561.54003906 C-74.43728751 575.83296985 -66.55567778 592.01368467 -60.93383789 609.20800781 C-60.41732666 610.78110718 -60.41732666 610.78110718 -59.89038086 612.38598633 C-52.53688248 635.08220551 -50.70327977 656.43332702 -50.61743164 680.20800781 C-50.60122516 682.64754888 -50.58404196 685.08708364 -50.56593323 687.52661133 C-50.52062598 693.89149062 -50.48560625 700.25637865 -50.45373535 706.62133789 C-50.40146969 716.86348287 -50.3368741 727.10553654 -50.2655201 737.3475647 C-50.24265951 740.92237494 -50.22642025 744.4971732 -50.21080017 748.07202148 C-50.1974056 750.24104962 -50.18379187 752.41007642 -50.16992188 754.57910156 C-50.1673085 755.57737976 -50.16469513 756.57565796 -50.16200256 757.60418701 C-50.15510406 758.5065509 -50.14820557 759.40891479 -50.14109802 760.33862305 C-50.13724311 761.12679916 -50.1333882 761.91497528 -50.12941647 762.72703552 C-50.19084015 764.54362006 -50.19084015 764.54362006 -48.99633789 765.52050781 C-47.12452849 765.61437162 -45.24915729 765.63794585 -43.375 765.6340332 C-42.17383041 765.63395767 -40.97266083 765.63388214 -39.73509216 765.63380432 C-37.77419395 765.62606239 -37.77419395 765.62606239 -35.77368164 765.61816406 C-34.42989657 765.6162998 -33.08611082 765.61487593 -31.74232483 765.61387634 C-28.19951513 765.61005183 -24.65674619 765.60022213 -21.11395264 765.58917236 C-17.50118562 765.57895681 -13.88841205 765.57437841 -10.27563477 765.56933594 C-3.18251909 765.55859979 3.91056885 765.54152417 11.00366211 765.52050781 C11.01174896 764.64370865 11.01983582 763.76690948 11.02816772 762.86354065 C11.10671518 754.52466658 11.19417664 746.18594094 11.29118919 737.84726048 C11.34073992 733.56218645 11.38706653 729.27713232 11.42553711 724.99194336 C11.46291956 720.84208205 11.50940748 716.69240635 11.56172562 712.54270744 C11.57999303 710.97424576 11.59519804 709.40574475 11.60700607 707.83722115 C11.90044215 670.14022685 21.90906191 635.28598625 49.32250977 608.09716797 C71.40187449 587.39014831 98.84505863 576.68452409 129.00366211 575.52050781 C130.39391602 575.44123047 130.39391602 575.44123047 131.81225586 575.36035156 C159.74694443 574.44900711 188.07550532 584.4485178 210.00366211 601.52050781 C210.90987305 602.43574219 211.81608398 603.35097656 212.74975586 604.29394531 C214.71276028 606.75476725 214.71276028 606.75476725 217.00366211 606.52050781 C217.23053711 607.07738281 217.45741211 607.63425781 217.69116211 608.20800781 C218.95471374 610.67450533 218.95471374 610.67450533 221.28491211 612.79394531 C246.49779196 638.07927596 255.17034591 672.87723771 255.41772461 707.51269531 C255.43648539 709.19663387 255.45606223 710.88056351 255.47640991 712.56448364 C255.52721951 716.94710983 255.5671152 721.32976634 255.60455322 725.71252441 C255.65204394 730.99757996 255.71341736 736.2824912 255.7723999 741.56742859 C255.85998634 749.55172842 255.93019699 757.53600944 256.00366211 765.52050781 C275.80366211 765.52050781 295.60366211 765.52050781 316.00366211 765.52050781 C317.69187268 760.4558761 318.28842562 756.89226536 318.25090027 751.7387085 C318.25331468 750.97352913 318.2557291 750.20834977 318.25821668 749.41998315 C318.26383639 746.86453642 318.25520262 744.30934162 318.24658203 741.75390625 C318.24765559 739.9165846 318.24959538 738.07926328 318.25233459 736.24194336 C318.25718375 731.24840608 318.24951865 726.25495818 318.23938155 721.26143169 C318.23056457 716.00292254 318.23235945 710.74441591 318.23274231 705.48590088 C318.23180489 696.62535118 318.22312389 687.76483564 318.20947266 678.90429688 C318.19388215 668.7494697 318.18846989 658.59468028 318.18920821 648.43984199 C318.18989253 637.54757985 318.18288769 626.65533175 318.17376161 615.76307392 C318.17165943 612.67190049 318.17092438 609.58072943 318.17052269 606.48955536 C318.16448083 582.14805727 317.90512042 557.84673576 317.00366211 533.52050781 C308.57042255 531.14843547 308.57042255 531.14843547 300.00878906 529.31298828 C298.96123947 529.1216481 297.91368988 528.93030792 296.83439636 528.73316956 C295.17988213 528.43840981 295.17988213 528.43840981 293.49194336 528.13769531 C292.30816605 527.92261826 291.12438873 527.7075412 289.90473938 527.48594666 C286.70885779 526.90589456 283.51227192 526.32992748 280.31537628 525.75549698 C276.91371181 525.14297513 273.51313631 524.52447445 270.11254883 523.90600586 C269.4294804 523.78178851 268.74641197 523.65757116 268.0426445 523.52958965 C266.66178232 523.27846226 265.28092422 523.02731245 263.90007019 522.77614021 C261.825752 522.39902703 259.75132824 522.02249937 257.67687988 521.64610291 C246.31932668 519.58439606 234.97194109 517.47166434 223.62866211 515.33300781 C201.65556561 511.19609618 179.67375818 507.10656437 157.69116211 503.02050781 C134.56809084 498.72246327 111.44592811 494.41972414 88.32788086 490.09472656 C87.3536832 489.9124822 86.37948555 489.73023785 85.37576675 489.54247093 C81.45877875 488.80971262 77.54179587 488.07692693 73.62481499 487.34413052 C43.24258698 481.66028402 12.85884347 475.98747935 -17.54956055 470.44506836 C-28.61213926 468.42795143 -39.67207756 466.39751607 -50.72827148 464.34570312 C-51.79699462 464.14737916 -52.86571775 463.94905519 -53.96682644 463.74472141 C-55.61268529 463.43929621 -55.61268529 463.43929621 -57.29179382 463.12770081 C-86.98713726 457.61734929 -116.69679543 452.18855256 -146.41369629 446.79577637 C-152.47521971 445.69557754 -158.53655139 444.59432337 -164.59790039 443.49316406 C-171.43777096 442.25064542 -178.2776584 441.00822025 -185.11767578 439.76651001 C-186.14177048 439.5804891 -187.16586517 439.39446819 -188.22099304 439.20281029 C-190.22352294 438.83953061 -192.22621538 438.47714558 -194.2290802 438.11571693 C-199.19579781 437.21821703 -204.1582448 436.30313951 -209.1159668 435.3571167 C-210.60336113 435.07685418 -210.60336113 435.07685418 -212.12080383 434.79092979 C-213.98471786 434.43920789 -215.84760496 434.08197622 -217.70915222 433.71793556 C-225.43006008 432.27078836 -232.21543613 432.18160689 -239.99584961 433.6628418 Z " fill="#FFFFFF" transform="translate(811.996337890625,27.4794921875)"/>
<path d="M0 0 C0.99181274 0.75265137 0.99181274 0.75265137 2.00366211 1.52050781 C2.89964111 2.20991455 3.79562012 2.89932129 4.71875 3.60961914 C8.65617343 5.90008463 11.88024495 6.48355402 16.33959961 7.04785156 C17.13661285 7.16350967 17.9336261 7.27916779 18.75479126 7.39833069 C21.29427915 7.76605805 23.83583252 8.11420564 26.37866211 8.45800781 C36.09689054 9.77927133 45.646654 11.13404775 55.04272461 14.02441406 C55.70501068 14.22574448 56.36729675 14.42707489 57.0496521 14.63450623 C60.37849648 15.72605522 62.79948673 16.73875966 65.00366211 19.52050781 C58.66965511 22.85340197 52.21800207 25.4311483 45.50366211 27.89550781 C44.44719482 28.2897998 43.39072754 28.6840918 42.30224609 29.09033203 C37.61506063 30.83710479 32.92379581 32.56115905 28.19506836 34.19238281 C10.33315293 40.41199232 0.46956875 52.58281421 -7.99047852 69.359375 C-9.99141656 73.65847782 -11.66698973 78.07410485 -13.30883789 82.52050781 C-13.63440674 83.39755371 -13.95997559 84.27459961 -14.29541016 85.17822266 C-18.69367171 97.61042857 -20.47431904 110.36348384 -22.01528931 123.38845825 C-24.87427284 147.19687474 -29.74986494 169.32432625 -38.99633789 191.52050781 C-39.55686779 192.91738896 -40.11679705 194.31451134 -40.67602539 195.71191406 C-49.89883272 218.24855791 -63.6872752 238.61251685 -80.59106445 256.04150391 C-83.093442 258.67517368 -85.41347694 261.46327355 -87.72680664 264.26269531 C-88.99633789 265.52050781 -88.99633789 265.52050781 -90.99633789 265.52050781 C-91.19614258 266.07351563 -91.39594727 266.62652344 -91.60180664 267.19628906 C-93.55545568 270.45237079 -96.32937069 272.44594551 -99.30883789 274.70800781 C-99.9362085 275.19068115 -100.5635791 275.67335449 -101.20996094 276.1706543 C-125.43997156 294.66366102 -150.73824056 307.00750395 -179.99633789 315.52050781 C-180.87845947 315.78484619 -181.76058105 316.04918457 -182.66943359 316.3215332 C-189.37715672 318.26022659 -196.00741291 319.38009418 -202.93383789 320.20800781 C-203.94768555 320.33755859 -204.9615332 320.46710938 -206.00610352 320.60058594 C-210.0535373 321.10618077 -213.91007108 321.52050781 -217.99633789 321.52050781 C-214.28622292 327.57879681 -209.99830281 333.00260801 -205.37353516 338.37548828 C-202.01759979 342.28447641 -198.78455633 346.26675361 -195.62133789 350.33300781 C-188.05518396 360.04824964 -180.24417632 369.56371649 -172.43383789 379.08300781 C-168.78290312 383.54149135 -165.16449377 388.02538878 -161.55883789 392.52050781 C-160.77754517 393.49225952 -160.77754517 393.49225952 -159.98046875 394.48364258 C-159.49199463 395.09393311 -159.00352051 395.70422363 -158.50024414 396.33300781 C-157.8477771 397.14705078 -157.8477771 397.14705078 -157.18212891 397.97753906 C-153.99633789 402.1229373 -153.99633789 402.1229373 -153.99633789 405.52050781 C-164.25763106 405.7793699 -179.1840375 405.52655444 -187.49633789 398.70800781 C-189.16040039 396.88378906 -189.16040039 396.88378906 -190.99633789 394.52050781 C-191.91884604 393.4081931 -192.84353329 392.29768388 -193.76977539 391.18847656 C-196.9244393 387.35946799 -199.97020173 383.45146874 -202.99633789 379.52050781 C-203.43236328 378.95493164 -203.86838867 378.38935547 -204.31762695 377.80664062 C-206.35338489 375.16286116 -208.38324985 372.51464234 -210.41040039 369.86425781 C-214.30998313 364.79510562 -218.32662881 359.8184139 -222.33227539 354.83300781 C-222.78441406 354.26839844 -223.23655273 353.70378906 -223.70239258 353.12207031 C-224.90164422 351.63771357 -226.12385318 350.17198454 -227.34790039 348.70800781 C-228.99633789 346.52050781 -228.99633789 346.52050781 -228.99633789 344.52050781 C-229.65633789 344.52050781 -230.31633789 344.52050781 -230.99633789 344.52050781 C-232.66040039 342.68457031 -232.66040039 342.68457031 -234.62133789 340.14550781 C-235.68094727 338.788125 -235.68094727 338.788125 -236.76196289 337.40332031 C-237.86797852 335.97632813 -237.86797852 335.97632813 -238.99633789 334.52050781 C-240.45105753 332.68430575 -241.90921949 330.85082391 -243.37133789 329.02050781 C-244.01844727 328.20582031 -244.66555664 327.39113281 -245.33227539 326.55175781 C-247.60969484 323.51445462 -247.60969484 323.51445462 -250.9675293 322.20166016 C-251.75305176 322.17023926 -252.53857422 322.13881836 -253.34790039 322.10644531 C-254.19868164 322.06777344 -255.04946289 322.02910156 -255.92602539 321.98925781 C-256.81547852 321.95832031 -257.70493164 321.92738281 -258.62133789 321.89550781 C-259.51852539 321.85683594 -260.41571289 321.81816406 -261.34008789 321.77832031 C-263.55863059 321.68391424 -265.77716192 321.59834033 -267.99633789 321.52050781 C-266.7329749 325.59175954 -265.22344652 329.23857412 -263.19555664 332.98535156 C-262.35758545 334.53935669 -262.35758545 334.53935669 -261.50268555 336.12475586 C-260.90246582 337.224729 -260.30224609 338.32470215 -259.68383789 339.45800781 C-259.06299316 340.60374268 -258.44214844 341.74947754 -257.80249023 342.92993164 C-253.65491403 350.5675463 -249.41229471 358.15005083 -245.12133789 365.70800781 C-236.94454918 380.12436083 -236.94454918 380.12436083 -234.12133789 385.27050781 C-233.48454102 386.42035156 -232.84774414 387.57019531 -232.19165039 388.75488281 C-230.99633789 391.52050781 -230.99633789 391.52050781 -231.99633789 394.52050781 C-234.72372024 395.05275332 -237.45254223 395.57158778 -240.18383789 396.08300781 C-240.95276367 396.23447266 -241.72168945 396.3859375 -242.51391602 396.54199219 C-250.39786227 397.99696939 -250.39786227 397.99696939 -253.99633789 396.52050781 C-256.89577017 393.21569601 -259.10451579 389.78304418 -261.21118164 385.93457031 C-261.80842041 384.85038818 -262.40565918 383.76620605 -263.02099609 382.64916992 C-263.96785278 380.91485718 -263.96785278 380.91485718 -264.93383789 379.14550781 C-265.93828278 377.31868004 -266.94455797 375.49286911 -267.95103455 373.66716003 C-268.63403474 372.42818509 -269.3165376 371.18893585 -269.99855042 369.94941711 C-273.22320536 364.09314222 -276.50877529 358.27209644 -279.80883789 352.45800781 C-284.1764665 344.75977969 -288.50624136 337.04266599 -292.75146484 329.27612305 C-293.12231201 328.60266846 -293.49315918 327.92921387 -293.87524414 327.23535156 C-294.19050049 326.65906006 -294.50575684 326.08276855 -294.83056641 325.48901367 C-295.40762329 324.51460327 -295.40762329 324.51460327 -295.99633789 323.52050781 C-296.54273926 322.5034375 -297.08914063 321.48636719 -297.65209961 320.43847656 C-300.57825883 316.79616715 -303.24891215 316.07851846 -307.62524414 315.11816406 C-309.25238313 314.71347572 -310.87880875 314.30591196 -312.50463867 313.89599609 C-313.38613586 313.6795343 -314.26763306 313.46307251 -315.17584229 313.24005127 C-320.33005189 311.92514839 -325.42237336 310.39652782 -330.52368164 308.89160156 C-332.7391486 308.24241803 -334.95464372 307.59333059 -337.17016602 306.94433594 C-338.28206299 306.61763916 -339.39395996 306.29094238 -340.53955078 305.9543457 C-343.95186594 304.95271597 -347.36568106 303.95631097 -350.77954102 302.95996094 C-352.98601499 302.31249394 -355.19239846 301.66471839 -357.39868164 301.01660156 C-358.40100327 300.72482529 -359.40332489 300.43304901 -360.4360199 300.13243103 C-366.24258708 298.41923647 -371.92878335 296.51106538 -377.59269714 294.37139893 C-382.81343785 292.52325175 -386.97161725 291.76377804 -392.16040039 294.18847656 C-393.65886367 295.00765442 -395.14538786 295.8489292 -396.62133789 296.70800781 C-397.43473633 297.15853516 -398.24813477 297.6090625 -399.08618164 298.07324219 C-400.82939622 299.0400782 -402.56789936 300.01544964 -404.30200195 300.99853516 C-408.83699854 303.56025759 -413.42055574 306.03263751 -417.99633789 308.52050781 C-419.8531303 309.53609337 -421.70990124 310.55171818 -423.56665039 311.56738281 C-428.64885159 314.33883558 -433.75099205 317.07022592 -438.87133789 319.77050781 C-439.90194336 320.31578125 -439.90194336 320.31578125 -440.95336914 320.87207031 C-445.76514796 323.39892623 -450.6197953 325.83603503 -455.48461914 328.25878906 C-463.38904156 332.19636407 -471.23460803 336.24272619 -479.07620239 340.30358887 C-518.04550258 360.45327226 -555.62225522 377.68260509 -600.07836914 363.54003906 C-605.64358397 361.49584471 -612.21266587 358.7592807 -615.18383789 353.36425781 C-615.45196289 352.75582031 -615.72008789 352.14738281 -615.99633789 351.52050781 C-609.69427087 347.08443213 -603.23364621 343.45048927 -596.30883789 340.08300781 C-594.345272 339.11560907 -592.38173026 338.14816129 -590.41821289 337.18066406 C-589.47913086 336.72062988 -588.54004883 336.2605957 -587.57250977 335.78662109 C-584.38877146 334.22190664 -581.22401897 332.62239824 -578.05883789 331.02050781 C-572.15821104 328.06669461 -566.2054313 325.22921658 -560.24633789 322.39550781 C-551.77901526 318.3684433 -543.37272335 314.23331315 -534.99633789 310.02050781 C-522.06300911 303.51991147 -509.02002173 297.26747352 -495.93823242 291.07226562 C-481.78073691 284.36177642 -467.76911925 277.44500211 -453.93920898 270.08105469 C-450.83721014 268.43612548 -447.7237555 266.81420129 -444.60961914 265.19238281 C-434.25322185 259.75452446 -424.52410364 254.62050538 -415.99633789 246.52050781 C-414.98515676 245.5979145 -413.97201268 244.6774696 -412.95727539 243.75878906 C-408.29581572 239.5159352 -403.70885936 235.19499508 -399.12915039 230.86425781 C-398.49146729 230.26452148 -397.85378418 229.66478516 -397.19677734 229.046875 C-395.95672775 227.88010909 -394.72074316 226.70900478 -393.48925781 225.53320312 C-389.22099642 221.52050781 -389.22099642 221.52050781 -386.99633789 221.52050781 C-386.99633789 220.86050781 -386.99633789 220.20050781 -386.99633789 219.52050781 C-385.42347105 218.10612375 -383.78493793 216.7644638 -382.12133789 215.45800781 C-377.21735611 211.5500482 -372.57299959 207.46026316 -367.99243164 203.17285156 C-365.99633789 201.52050781 -365.99633789 201.52050781 -363.99633789 201.52050781 C-363.99633789 200.86050781 -363.99633789 200.20050781 -363.99633789 199.52050781 C-362.44745287 198.1034428 -360.82872255 196.76241285 -359.18383789 195.45800781 C-358.1693457 194.64589844 -357.15485352 193.83378906 -356.10961914 192.99707031 C-355.08223633 192.17980469 -354.05485352 191.36253906 -352.99633789 190.52050781 C-351.28536283 189.12791389 -349.57699102 187.73211499 -347.87133789 186.33300781 C-346.96125977 185.59050781 -346.05118164 184.84800781 -345.11352539 184.08300781 C-342.79249305 182.18246335 -340.48994378 180.26097629 -338.19165039 178.33300781 C-328.42859168 170.17149314 -318.38188591 162.51673207 -308.08520508 155.04248047 C-305.30713997 153.01835028 -302.55597431 150.96144374 -299.80883789 148.89550781 C-298.87813477 148.19683594 -297.94743164 147.49816406 -296.98852539 146.77832031 C-294.78067071 145.11234119 -292.57836967 143.43998801 -290.37915039 141.76269531 C-280.90771858 134.56416901 -271.21879717 127.74827376 -261.3503418 121.10546875 C-259.10762707 119.59543929 -256.87010119 118.07798142 -254.63305664 116.55957031 C-239.96861999 106.64923602 -224.98926166 97.20796686 -209.74243164 88.21972656 C-209.13661758 87.86244476 -208.53080353 87.50516296 -207.90663147 87.13705444 C-204.96962131 85.4073729 -202.02820099 83.68617991 -199.08056641 81.97460938 C-184.76824668 73.60266254 -176.2144914 65.39334996 -168.14483643 50.80691528 C-167.10185076 48.92280512 -166.04678029 47.04595022 -164.98803711 45.1706543 C-163.60095524 42.71316803 -162.21684608 40.25406619 -160.83618164 37.79296875 C-143.88169337 7.63665761 -123.86988082 -13.75693184 -89.99633789 -24.47949219 C-56.64236399 -33.8064393 -25.70233575 -20.75998709 0 0 Z M-70.37133789 12.33300781 C-71.31341184 15.63026664 -71.40894445 18.10176771 -70.99633789 21.52050781 C-68.27971973 25.63424389 -65.89703994 28.41784985 -60.99633789 29.52050781 C-56.58364248 29.29987304 -54.19781569 27.46240633 -50.99633789 24.52050781 C-48.52703408 20.8165521 -48.67506231 19.09337279 -49.26196289 14.81738281 C-50.56877255 10.73012708 -53.30482544 8.53336954 -56.99633789 6.52050781 C-62.64081307 5.3685741 -66.92718265 7.792985 -70.37133789 12.33300781 Z M-79.99633789 71.52050781 C-81.0443457 72.514375 -81.0443457 72.514375 -82.11352539 73.52832031 C-86.44148929 77.95732617 -89.44113923 82.7360983 -92.24633789 88.20800781 C-92.72224365 89.1236853 -92.72224365 89.1236853 -93.20776367 90.05786133 C-99.40171289 102.8021641 -101.22362035 116.84817763 -103.27539062 130.70166016 C-105.46529603 145.33936712 -108.59329359 159.30969018 -115.80883789 172.39550781 C-116.24188232 173.19722412 -116.67492676 173.99894043 -117.12109375 174.82495117 C-120.49999976 180.93629359 -124.29311982 186.34604392 -128.99633789 191.52050781 C-129.7040332 192.34550781 -130.41172852 193.17050781 -131.14086914 194.02050781 C-170.1620165 238.85040741 -237.05943597 253.56159244 -292.99633789 263.52050781 C-294.09719727 263.71773437 -295.19805664 263.91496094 -296.33227539 264.11816406 C-310.0368029 266.53760534 -323.74799334 268.25352474 -337.60620117 269.48217773 C-338.7726416 269.59021729 -339.93908203 269.69825684 -341.14086914 269.80957031 C-342.69318237 269.94419678 -342.69318237 269.94419678 -344.27685547 270.08154297 C-346.90929244 270.50645738 -348.70955726 271.18322119 -350.99633789 272.52050781 C-315.05136682 285.17529163 -277.1812506 293.74215363 -238.99633789 293.77050781 C-238.17552734 293.77118256 -237.3547168 293.7718573 -236.5090332 293.77255249 C-224.08486347 293.75635627 -212.16685559 293.19463014 -199.99633789 290.52050781 C-198.73926025 290.26309814 -198.73926025 290.26309814 -197.45678711 290.00048828 C-169.47511476 284.2351612 -144.72115876 272.85709694 -121.99633789 255.52050781 C-121.00504883 254.77285156 -120.01375977 254.02519531 -118.99243164 253.25488281 C-76.01400961 219.47271703 -57.01194649 168.04725192 -50.24041748 115.55200195 C-48.68330737 103.57808458 -46.79705817 92.0195023 -42.99633789 80.52050781 C-42.65344727 79.44027344 -42.31055664 78.36003906 -41.95727539 77.24707031 C-38.46773497 67.28054121 -33.17951518 58.06577063 -28.15380859 48.80957031 C-26.94894582 46.42678327 -25.95249896 44.01230483 -24.99633789 41.52050781 C-43.89632306 41.52050781 -67.33869287 59.12030641 -79.99633789 71.52050781 Z " fill="#DEB54E" transform="translate(810.996337890625,28.4794921875)"/>
</svg>
